# xmcd CD database file
#
# Track frame offsets:
#	187
#	21260
#	40287
#
# Disc length: 813 seconds
#
# Revision: 0
# Processed by: cddbd v1.5PL3 Copyright (c) Steve Scherf et al.
# Submitted via: CDex 1.51
#
DISCID=1e032b03
DTITLE=鈴里真帆 - FLOWER
DYEAR=1996
DGENRE=JPop
TTITLE0=FLOWER
TTITLE1=Pack Bath
TTITLE2=FLOWER -minus one-
EXTD=YEAR: 1996
EXTT0=
EXTT1=
EXTT2=
PLAYORDER=
